<svg xmlns="http://www.w3.org/2000/svg" viewBox="0 0 214.32 51.09"><title>Anker logo</title><path d="M608.19,511.54a17.87,17.87,0,0,0,5.27-6,12.05,12.05,0,0,0,1.43-6.84,13.09,13.09,0,0,0-4.28-8.84,12.76,12.76,0,0,0-9-3.42H582.25v42.47h7.7V511.54h9.12l11,17.39h9.12Zm-.71-12.83a5.56,5.56,0,0,1-1.71,4,6,6,0,0,1-4.13,1.28H589.95V494h11.69q3.28.14,4.56,1.71a4.82,4.82,0,0,1,1.28,3ZM523.4,513.1l10,15.82h9.12l-14.11-22.52Zm16.39-26.65H530l-20.24,26.79V486.46h-7.84v38.76a4.27,4.27,0,0,0,.71,2.28,4,4,0,0,0,2.42,1.43,3.68,3.68,0,0,0,1.71-.14,3.82,3.82,0,0,0,2-1.28Zm17.1,24.94,15.25.14V504H556.89Zm19.24-24.94H545.77v38.76a4.64,4.64,0,0,0,1.14,2.71,4,4,0,0,0,2.71,1h26.51v-7.41H553.61V494h22.52Zm-89.78,0v26.79l-20.09-26.79h-10v42.47h7.84V496.57l23.23,30.92a3.87,3.87,0,0,0,1.85,1.28,4.37,4.37,0,0,0,1.85.14,4,4,0,0,0,2.42-1.43,4.27,4.27,0,0,0,.71-2.28V486.46Zm-61.56,2.28-20,40.19h8.69l15-30.21,15,30.21H452l-19.67-40a4.15,4.15,0,0,0-3.85-2.28A3.89,3.89,0,0,0,424.79,488.74Zm10.69,34.2h-5.13v-.14l1-10.83-.14-.14-11.12,14.54h5.27v.14l-1,11q0,.14.14,0l11.12-14.39v-.14Z" transform="translate(-404.84 -486.46)" style="fill:#00a7e1"/></svg>