<?xml version="1.0" encoding="UTF-8" standalone="no"?>
<!DOCTYPE svg PUBLIC "-//W3C//DTD SVG 1.1//EN" "http://www.w3.org/Graphics/SVG/1.1/DTD/svg11.dtd">
<svg width="100%" height="100%" viewBox="0 0 200 200" version="1.1" xmlns="http://www.w3.org/2000/svg" xmlns:xlink="http://www.w3.org/1999/xlink" xml:space="preserve" xmlns:serif="http://www.serif.com/" style="fill-rule:evenodd;clip-rule:evenodd;stroke-linejoin:round;stroke-miterlimit:2;">
    <g transform="matrix(0.224717,0,0,0.224717,-7.86508,-7.86508)">
        <path d="M854.55,925L105.45,925C66.54,925 35,893.46 35,854.55L35,105.45C35,66.54 66.54,35 105.45,35L854.56,35C893.47,35 925.01,66.54 925.01,105.45L925.01,854.56C925.01,893.47 893.47,925.01 854.56,925.01L854.55,925Z" style="fill:rgb(255,241,0);fill-rule:nonzero;"/>
    </g>
    <g transform="matrix(0.224717,0,0,0.224717,-7.86508,-7.86508)">
        <path d="M369.31,193.65C388.88,190.16 408.01,186.75 427.15,183.34C428.36,184.92 427.7,186.42 427.5,187.88C426.11,198.03 424.71,208.18 423.34,218.33C423.22,219.2 423.32,220.1 423.32,221.38C424.53,220.94 425.57,220.64 426.55,220.19C446.41,211.04 467.34,207.3 489.05,208.87C547.99,213.13 593.17,255.23 605.67,307.47C618.95,362.96 594.75,419.02 547.53,448C531.22,458.01 513.55,464.05 494.52,466.19C430.8,473.33 374.18,433.31 356.54,375.92C350.56,356.46 349.43,336.71 352.45,316.6C354.87,300.51 356.9,284.36 359.09,268.23C361.02,254.01 362.94,239.78 364.86,225.56C366.03,216.92 367.2,208.29 368.38,199.65C368.64,197.76 368.96,195.88 369.3,193.65L369.31,193.65ZM551.63,337.73C551.98,300.4 521.87,266.31 480.33,266.15C438.38,265.99 408.5,300.4 408.36,337.5C408.22,374.72 437.95,409.5 480.11,409.45C521.97,409.41 552.03,375.1 551.63,337.72L551.63,337.73Z" style="fill-rule:nonzero;"/>
        <path d="M388.24,456.93C389,458.18 389.49,458.9 389.89,459.68C396,471.39 405.27,479.77 417.22,485.14C430.26,491 443.92,494.75 458.1,496.72C486.29,500.63 513.55,497.2 539.85,486.4C553.24,480.9 563.67,472 570.36,458.98C570.64,458.43 571.03,457.94 571.47,457.27C572.15,457.56 572.8,457.69 573.27,458.06C584.65,466.98 591.62,478.3 591.84,493.1C591.95,500.59 588.98,507.06 584.43,512.87C580.03,518.5 574.48,522.85 568.61,526.8C555.47,535.64 540.99,541.41 525.61,544.86C493.67,552.01 461.75,551.84 429.99,543.78C412.64,539.38 396.6,532.1 382.88,520.37C379.6,517.57 376.62,514.26 374.12,510.74C368.19,502.42 366.73,493.08 369.41,483.26C371.93,474.01 376.86,466.15 384.21,459.9C385.37,458.92 386.66,458.1 388.25,456.94L388.24,456.93Z" style="fill-rule:nonzero;"/>
        <path d="M136.78,629.09C147.34,627.21 157.9,625.33 169.05,623.34C167.99,635.46 165.56,646.93 164.44,659.11C166.27,658.68 167.69,658.37 169.1,658.02C189.07,653.13 207.36,656.71 223.32,669.73C236.19,680.23 242.75,694.24 243.99,710.77C245.04,724.9 242.17,738.09 234.14,749.89C223.48,765.55 208.36,773.8 189.67,775.35C174.48,776.61 160.29,773.27 147.89,764.06C134.26,753.93 127.15,740.07 125.03,723.35C123.82,713.75 125.69,704.43 126.99,695.06C129.37,677.79 131.9,660.54 134.36,643.29C134.92,639.36 135.44,635.42 136.02,631.49C136.13,630.76 136.47,630.06 136.78,629.1L136.78,629.09ZM212.35,715.7C212.31,700.23 199.91,687.79 184.55,687.78C170.2,687.77 156.37,698.78 156.49,715.89C156.62,734.72 172.43,744.07 184.73,743.8C200.11,743.47 212.39,731.22 212.35,715.7Z" style="fill-rule:nonzero;"/>
        <path d="M603.53,734.48C603.12,736.15 602.87,737.76 602.34,739.27C598.11,751.32 590.53,760.7 579.75,767.54C559.79,780.21 528.01,779.61 508.67,763.18C498.1,754.2 491.52,742.81 488.89,729.31C485.31,710.9 487.99,693.49 499.24,678.1C509.88,663.55 524.62,656.2 542.53,655.12C552.92,654.49 562.99,655.88 572.47,660.42C591.03,669.31 601.46,684.31 604.84,704.3C605.73,709.56 605.51,715.01 605.66,720.38C605.7,721.85 605.23,723.33 604.93,725.21L519.73,725.21C519.28,728.24 520.44,730.42 521.48,732.56C525.03,739.84 531.22,743.69 538.92,745.01C545.8,746.19 552.72,745.95 559.43,743.65C563.76,742.16 567.53,739.8 570.24,736.01C571.1,734.81 571.96,733.89 573.62,733.9C582.98,733.96 592.34,733.94 601.7,733.98C602.17,733.98 602.65,734.23 603.54,734.49L603.53,734.48ZM521.53,700.01C527.1,700.85 568.01,700.6 570.96,699.71C569.84,695.32 567.34,691.93 563.79,689.22C560.13,686.43 555.91,684.92 551.42,684.28C543.31,683.12 535.53,683.92 528.77,689.15C525.25,691.87 522.82,695.35 521.52,700.02L521.53,700.01Z" style="fill-rule:nonzero;"/>
        <path d="M371.5,775.3L341.63,775.3C341.43,773.04 341.25,770.95 341.03,768.47C339.19,769.26 337.7,769.9 336.2,770.53C320.44,777.14 304.43,777.53 288.6,771.33C269.21,763.73 257.4,749.25 253.39,728.89C249,706.58 254.79,686.96 271.77,671.63C288.56,656.46 308.44,651.96 330.06,658.99C351.6,666 365.01,681.09 370.2,703.2C371.13,707.15 371.59,711.3 371.62,715.37C371.77,733.96 371.69,752.56 371.68,771.16C371.68,772.42 371.57,773.67 371.5,775.3ZM311.34,744.64C327.15,745.24 340.55,732.11 340.76,716.44C340.98,700.22 328.34,687.06 312.25,686.88C296.2,686.7 283.38,699.26 282.99,715.26C282.56,732.5 296.06,744.84 311.34,744.63L311.34,744.64Z" style="fill-rule:nonzero;"/>
        <path d="M477.11,655.91C475.74,665.92 474.46,675.28 473.12,685.02C471.45,685.11 469.96,685.27 468.48,685.27C452.32,685.29 436.17,685.27 420.01,685.29C418.22,685.29 416.4,685.29 414.64,685.57C412.03,685.99 410.49,687.49 410.18,689.69C409.82,692.24 410.12,694.74 412.65,696.04C414.55,697.02 416.66,697.76 418.77,698.15C429.34,700.09 439.96,701.77 450.52,703.76C454.27,704.47 458,705.54 461.58,706.87C472.88,711.04 479.63,719.15 481.54,731.08C482.46,736.8 482.7,742.57 481.43,748.28C478.77,760.29 471.38,768.17 460,772.46C454.79,774.42 449.35,775.35 443.81,775.37C424.32,775.44 404.83,775.41 385.34,775.4C384.23,775.4 383.11,775.23 381.56,775.11C383.05,764.8 384.49,754.84 385.99,744.51L390.89,744.51C407.69,744.51 424.48,744.53 441.28,744.48C443.18,744.48 445.12,744.29 446.97,743.88C449.57,743.31 451.26,741.71 451.48,738.86C451.74,735.46 450.69,733.15 447.85,731.9C446.11,731.14 444.22,730.58 442.34,730.28C432.1,728.61 421.84,727.07 411.59,725.43C404.83,724.35 398.35,722.48 392.53,718.71C384.37,713.42 379.8,705.86 378.63,696.29C377.82,689.73 378.34,683.22 380.68,676.97C385.11,665.1 394.25,659.06 406.24,656.82C409.62,656.19 413.11,655.97 416.55,655.96C435.27,655.88 453.99,655.92 472.71,655.92L477.11,655.92L477.11,655.91Z" style="fill-rule:nonzero;"/>
        <path d="M825.1,685.27L820.18,685.27C804.15,685.27 788.12,685.27 772.09,685.28C770.43,685.28 768.74,685.27 767.1,685.49C764.15,685.89 762.44,687.5 762.05,689.98C761.62,692.64 762.66,695.42 765.24,696.35C768.7,697.59 772.36,698.33 775.99,699.02C785.92,700.9 795.92,702.46 805.81,704.52C809.78,705.34 813.7,706.81 817.36,708.56C825.57,712.5 830.75,719.05 832.87,727.99C834.55,735.08 834.97,742.2 833.22,749.3C830.43,760.63 823.23,768.12 812.47,772.29C807.28,774.3 801.84,775.32 796.3,775.34C776.55,775.43 756.8,775.38 737.05,775.37C736.17,775.37 735.29,775.25 733.84,775.14C734.7,764.93 736.55,755.06 738,744.68C739.59,744.61 741.08,744.5 742.56,744.5C759.49,744.49 776.42,744.5 793.34,744.46C795.24,744.46 797.17,744.22 799.02,743.83C801.47,743.3 803.11,741.85 803.38,739.14C803.72,735.67 802.79,733.27 800.09,732C798.37,731.19 796.48,730.62 794.61,730.31C784.5,728.64 774.37,727.05 764.24,725.5C758.51,724.62 752.93,723.24 747.75,720.57C734.83,713.91 729.37,702.17 730.43,687.7C731.03,679.57 733.56,672.16 739.42,666.17C744.56,660.92 750.95,658.14 758.01,656.84C761.27,656.24 764.63,655.97 767.94,655.95C786.92,655.87 805.9,655.91 824.88,655.91C826.12,655.91 827.37,656.01 829.1,656.09C827.74,665.95 826.44,675.4 825.09,685.27L825.1,685.27Z" style="fill-rule:nonzero;"/>
        <path d="M691.71,661.22C701.92,659.4 711.93,657.61 722.49,655.72C722.56,657.65 722.66,659.13 722.66,660.61C722.68,684.08 722.76,707.55 722.67,731.01C722.61,748.61 714.24,761.21 698.84,769.28C692.41,772.65 685.42,774.36 678.23,775.09C666.92,776.25 655.66,776.03 644.77,772.29C629.53,767.06 619.23,756.97 615.14,741.12C614.41,738.3 614.01,735.31 614,732.39C613.89,709.82 613.91,687.25 613.9,664.68C613.9,663.67 614.01,662.65 614.09,661.14C624.12,659.36 634.13,657.58 644.66,655.71C644.73,657.7 644.83,659.18 644.83,660.67C644.84,682.21 644.97,703.76 644.77,725.3C644.7,732.91 648.12,738.14 654.53,741.38C664.41,746.38 674.42,745.73 683.95,740.37C689.23,737.4 691.75,732.54 691.73,726.3C691.64,706.3 691.7,686.29 691.7,666.28L691.7,661.19L691.71,661.22Z" style="fill-rule:nonzero;"/>
    </g>
</svg>
